# xmcd
#
# Track frame offsets:
#	150
#	17993
#	37327
#	55752
#	70398
#	86287
#	102811
#	116739
#	132930
#	151836
#	170331
#	186945
#	200929
#	216999
#	232861
#	250321
#
# Disc length: 3530 seconds
#
# Revision: 0
# Processed by: cddbd v1.5.2PL0 Copyright (c) Steve Scherf et al.
# Submitted via: audiograbber 1.83.01
#
DISCID=e50dc810
DTITLE=Various Artist - Hit-Singles '84
DYEAR=1984
DGENRE=Pop
TTITLE0=Thomas Anders - Endstation Sehnsucht
TTITLE1=Roland Kaiser - Es Kann Der Frömmste Nicht In Frieden Leben
TTITLE2=Hanne Haller - Engel Fallen Nicht Vom Himmel
TTITLE3=Relax  - Marie
TTITLE4=Nicki - Servus, Machs' Guat
TTITLE5=Western Union  - Du Machst Mi Wuschig
TTITLE6=Schrott Nach 8 - Zuppa Romana
TTITLE7=Frank Zander Als Fred Sonnenschein - Bum Da Da Bum Da Da
TTITLE8=Mary Roos - Hart Auf Hart
TTITLE9=Rex Gildo - Und Plötzlich Ist Es Wieder Da
TTITLE10=Melanie Sanders - Herzklopfen
TTITLE11=Frank Turba - Das Letzte Einhorn
TTITLE12=Conny and Jean - Das Gefühl Füreinander Zu Leben
TTITLE13=Cora - Liebeskummer
TTITLE14=Nicole  - Aber Damals, Da Waren Wir Noch Kinder
TTITLE15=Die Minnesänger - Der Wilddieb Von Herzogenbronn
EXTD=
EXTT0=
EXTT1=
EXTT2=
EXTT3=
EXTT4=
EXTT5=
EXTT6=
EXTT7=
EXTT8=
EXTT9=
EXTT10=
EXTT11=
EXTT12=
EXTT13=
EXTT14=
EXTT15=
PLAYORDER=
